<?xml version="1.0" encoding="UTF-8"?><svg id="Lag_2" xmlns="http://www.w3.org/2000/svg" viewBox="0 0 1000.86 280.19"><defs><style>.cls-1{fill:#819a00;}</style></defs><g id="Lag_1-2"><path class="cls-1" d="M157.17,15.89h4.77c2.02,.1,3.13,.14,3.32,.14,3.18,0,5.49-.53,6.93-1.59,2.89-2.12,4.33-4.72,4.33-7.8,0-4.43-4.19-6.65-12.57-6.65-14.83,0-32.89,1.64-54.17,4.91-14.25,2.22-23.88,4.48-28.89,6.79-3.08,1.44-4.62,3.71-4.62,6.79,0,4.14,1.93,6.69,5.78,7.66-2.79,4.43-5.68,8.96-8.67,13.58-13.19,19.84-22.15,33.95-26.87,42.33-15.8,27.64-28.27,53.07-37.41,76.27-6.07,15.31-9.1,24.17-9.1,26.58s.92,4.77,2.74,7.08c2.12,2.79,4.53,4.19,7.22,4.19,1.83,0,4.04-.72,6.65-2.17,19.94-11.17,42.66-17.43,68.18-18.78,2.37-.05,4.3-.13,5.8-.25,.32,1.13,.89,2.12,1.73,2.95,1.06,1.16,2.41,1.73,4.04,1.73,3.27,0,6.36-2.55,9.25-7.66,11.27-21.28,23.45-36.12,36.55-44.49-9.82,15.79-14.73,30.19-14.73,43.19,0,6.74,1.3,12.47,3.9,17.19,2.7,5.01,6.02,7.51,9.97,7.51,1.73,0,3.23-.67,4.48-2.02,1.16-1.06,1.73-2.17,1.73-3.32,0-1.25-.67-2.98-2.02-5.2-2.89-4.81-4.33-9.87-4.33-15.17,0-16.37,9.2-35.29,27.59-56.77,3.37-3.95,5.06-7.37,5.06-10.26,0-4.14-1.88-6.21-5.63-6.21-6.84,0-20.32,9.82-40.45,29.47-1.16,1.16-2.36,2.31-3.61,3.47,2.5-4.81,5.78-10.16,9.82-16.04,2.79-3.95,4.19-6.98,4.19-9.1,0-1.73-.67-3.27-2.02-4.62-1.16-1.16-2.36-1.73-3.61-1.73-2.6,0-5.73,2.65-9.39,7.95-3.66,5.39-8.67,14.06-15.02,26-6.98,12.99-11.88,23.04-14.75,30.18-2.48-.92-5.94-1.38-10.4-1.38-7.9,0-16.32,.87-25.28,2.6-6.74,1.45-17.24,4.58-31.49,9.39-2.12,.77-4.29,1.54-6.5,2.31,3.18-10.3,7.61-21.52,13.29-33.66,9.82-20.8,17.29-35.01,22.39-42.62,13-4.33,31.97-7.27,56.92-8.81,3.95-.19,6.74-.67,8.38-1.45,2.41-1.06,3.61-3.13,3.61-6.21,0-4.91-3.03-7.37-9.1-7.37-8.38,0-23.21,2.02-44.49,6.07l-5.78,1.01c3.85-7.32,10.74-18.3,20.66-32.94l6.93-10.69c4.53-5.87,6.79-9.63,6.79-11.27,0-.87-.48-2.02-1.44-3.47,8.18-2.41,17.96-4.24,29.32-5.49,13.1-1.44,23.11-2.17,30.05-2.17Z"/><path class="cls-1" d="M653.19,97.19c-2.99-2.12-7.46-3.18-13.43-3.18-11.37,0-22.15,3.56-32.36,10.69-10.5,7.42-15.75,15.94-15.75,25.57,0,7.22,3.18,15.27,9.53,24.12,4.62,6.45,6.93,11.7,6.93,15.75,0,3.28-.87,5.97-2.6,8.09-2.12,2.51-5.06,3.76-8.81,3.76s-7.27-1.44-10.26-4.33c-3.37-3.27-5.06-7.27-5.06-11.99,0-5.58,1.11-10.45,3.32-14.59,.87-1.54,1.3-2.69,1.3-3.47,0-1.92-1.21-2.89-3.61-2.89-.3,0-.59,.03-.89,.07-.64-.35-1.35-.55-2.15-.55-2.12,0-4.09,1.59-5.92,4.77-3.37,5.59-7.22,11.17-11.56,16.76-6.84,9.05-12.66,13.58-17.48,13.58-2.02,0-3.54-.63-4.55-1.88-1.01-1.25-1.52-3.08-1.52-5.49,0-8.47,3.8-21.28,11.41-38.42,5.29-12.04,11.07-22.92,17.33-32.65,3.47-1.16,6.98-2.26,10.54-3.32,12.9-3.76,20.17-5.58,21.81-5.49,4.04-.38,6.55-.87,7.51-1.44,1.83-1.06,2.74-2.7,2.74-4.91,0-4.43-2.65-6.65-7.94-6.65-4.62,0-12.28,1.45-22.97,4.33,1.73-2.98,4.38-6.88,7.94-11.7,5.39-7.42,8.09-12.37,8.09-14.88,0-1.25-.58-2.5-1.73-3.76-1.25-1.35-2.5-2.02-3.76-2.02-1.73,0-3.76,1.21-6.07,3.61-1.64,1.73-4.58,5.49-8.81,11.27-7.61,10.4-13.1,18.63-16.47,24.7-4.43,1.44-7.8,2.36-10.11,2.75-6.36,.87-9.92,1.49-10.69,1.88-2.79,1.44-4.19,3.37-4.19,5.78,0,2.02,1.06,3.71,3.18,5.06,1.54,.96,3.32,1.44,5.34,1.44,1.35,0,3.32-.34,5.92-1.01-2.97,5.9-5.47,10.91-7.51,15.06-.03-.04-.06-.07-.09-.11-.77-.77-1.54-1.16-2.31-1.16-1.16,0-2.6,.58-4.33,1.73-10.11,6.84-17.24,10.26-21.38,10.26-2.5,0-3.76-1.11-3.76-3.32,0-3.95,4.91-9.82,14.74-17.62,3.66-2.98,5.49-5.34,5.49-7.08,0-.96-.43-2.02-1.3-3.18-1.44-2.12-2.89-3.18-4.33-3.18-.67,0-2.26,.72-4.77,2.17-5.01,2.99-9.73,6.21-14.16,9.68-12.33,9.63-23.21,19.5-32.65,29.61,2.31-5.58,5.63-11.22,9.97-16.9,4.72-5.97,7.27-9.2,7.66-9.68,1.93-2.6,2.89-4.62,2.89-6.07s-.63-2.65-1.88-3.61c-1.06-.77-2.22-1.16-3.47-1.16-3.76,0-8.43,3.61-14.01,10.83-2.59,3.34-5.15,7.07-7.68,11.19,1.47-5.36,2.22-10.3,2.22-14.81,0-9.63-3.95-14.45-11.85-14.45-5.11,0-10.79,2.17-17.05,6.5-3.45,2.39-6.75,5.1-9.91,8.12,.09-.83,.15-1.67,.15-2.51,0-4.33-1.49-7.56-4.48-9.68-2.99-2.12-7.46-3.18-13.43-3.18-11.37,0-22.15,3.56-32.36,10.69-10.5,7.42-15.75,15.94-15.75,25.57,0,7.22,3.18,15.27,9.53,24.12,4.62,6.45,6.93,11.7,6.93,15.75,0,3.28-.87,5.97-2.6,8.09-2.12,2.51-5.06,3.76-8.81,3.76s-7.27-1.44-10.26-4.33c-3.37-3.27-5.06-7.27-5.06-11.99,0-5.58,1.11-10.45,3.32-14.59,.87-1.54,1.3-2.69,1.3-3.47,0-1.92-1.21-2.89-3.61-2.89-.06,0-.12,.01-.18,.01-.44-.12-.93-.19-1.5-.19-2.22,0-4.33,1.64-6.36,4.91-5.11,8.28-8.96,14.01-11.56,17.19-5.49,6.55-9.97,9.82-13.43,9.82-2.31,0-3.47-1.2-3.47-3.61,0-1.83,.72-5.06,2.17-9.68,1.45-4.62,3.61-10.69,6.5-18.2,6.84-6.16,12.23-11.07,16.18-14.73,15.02-13.96,27.93-27.93,38.71-41.89,24.08-31.4,36.11-53.83,36.11-67.32,0-2.89-.96-5.44-2.89-7.66-1.83-2.21-4.19-3.32-7.08-3.32-9.05,0-20.47,9.05-34.24,27.16-17.16,22.43-33.99,50.93-50.48,85.48,.64-3.34,.97-6.51,.97-9.49,0-9.63-3.95-14.45-11.85-14.45-5.11,0-10.79,2.17-17.05,6.5-3,2.08-5.88,4.4-8.66,6.96,.6-2.09,.9-4.2,.9-6.34,0-4.33-1.49-7.56-4.48-9.68-2.99-2.12-7.46-3.18-13.43-3.18-11.37,0-22.15,3.56-32.36,10.69-10.5,7.42-15.75,15.94-15.75,25.57,0,7.22,3.18,15.27,9.53,24.12,4.62,6.45,6.93,11.7,6.93,15.75,0,3.28-.87,5.97-2.6,8.09-2.12,2.51-5.06,3.76-8.81,3.76s-7.27-1.44-10.26-4.33c-3.37-3.27-5.06-7.27-5.06-11.99,0-5.58,1.11-10.45,3.32-14.59,.87-1.54,1.3-2.69,1.3-3.47,0-1.92-1.21-2.89-3.61-2.89-2.69,0-5.29,1.69-7.8,5.06-3.85,5.11-5.78,11.41-5.78,18.92,0,6.45,1.69,12.04,5.06,16.76,4.82,6.65,11.85,9.97,21.09,9.97,5.87,0,11.12-1.49,15.75-4.48,7.51-4.81,11.27-11.46,11.27-19.93,0-5.68-2.84-12.62-8.52-20.8-5.11-7.51-7.66-13.77-7.66-18.78,0-7.03,3.9-13.1,11.7-18.2,6.74-4.53,12.9-6.79,18.49-6.79,2.31,0,4.04,.48,5.2,1.44,1.16,.96,1.73,2.46,1.73,4.48,0,2.6-1.3,5.01-3.9,7.22-2.99,2.6-6.26,4.29-9.82,5.06-5.97,1.35-9.25,2.17-9.82,2.46-2.31,1.25-3.47,3.08-3.47,5.49,0,3.56,2.02,5.34,6.07,5.34,2.98,0,6.69-.82,11.12-2.46,2.95-1.13,5.63-2.38,8.05-3.76-1.23,1.85-2.44,3.77-3.61,5.75-8.47,14.45-12.71,27.83-12.71,40.16,0,3.66,.67,6.79,2.02,9.39,2.6,5.2,6.7,7.8,12.28,7.8,12.04,0,24.51-10.64,37.41-31.92,.54-.89,1.05-1.77,1.56-2.64-2.98,8.92-4.49,15.98-4.49,21.12,0,3.18,.82,5.88,2.46,8.09,2.31,3.08,5.3,4.62,8.96,4.62,8.23,0,17.14-6.24,26.74-18.68,.72,4.1,2.22,7.79,4.56,11.06,4.82,6.65,11.85,9.97,21.09,9.97,5.87,0,11.12-1.49,15.75-4.48,7.51-4.81,11.27-11.46,11.27-19.93,0-5.68-2.84-12.62-8.52-20.8-5.11-7.51-7.66-13.77-7.66-18.78,0-7.03,3.9-13.1,11.7-18.2,6.74-4.53,12.9-6.79,18.49-6.79,2.31,0,4.04,.48,5.2,1.44,1.16,.96,1.73,2.46,1.73,4.48,0,2.6-1.3,5.01-3.9,7.22-2.99,2.6-6.26,4.29-9.82,5.06-5.97,1.35-9.25,2.17-9.82,2.46-2.31,1.25-3.47,3.08-3.47,5.49,0,3.56,2.02,5.34,6.07,5.34,2.98,0,6.69-.82,11.12-2.46,2.28-.87,4.38-1.82,6.34-2.84-8.41,14.38-12.62,27.71-12.62,39.99,0,3.66,.67,6.79,2.02,9.39,2.6,5.2,6.7,7.8,12.28,7.8,11.11,0,22.58-9.07,34.43-27.19-5.44,13.93-8.17,22.53-8.17,25.76s1.78,5.06,5.34,5.06c3.28,0,6.02-2.21,8.23-6.64,5.87-11.85,11.8-21.81,17.77-29.9,10.3-13.1,19.26-22.34,26.87-27.74-2.02,3.08-3.03,5.83-3.03,8.23,0,3.47,1.11,5.88,3.32,7.22,2.6,1.64,5.44,2.46,8.52,2.46,7.61,0,15.65-3.18,24.12-9.53,2.04-1.5,3.82-2.91,5.34-4.22-.18,.4-.35,.78-.48,1.11-6.74,15.51-10.11,29.09-10.11,40.74,0,5.3,1.01,9.39,3.03,12.28,3.27,4.53,7.37,6.79,12.28,6.79,9.08,0,19.08-7.16,30.01-21.46,.57,4.76,2.16,8.99,4.8,12.69,4.82,6.65,11.85,9.97,21.09,9.97,5.87,0,11.12-1.49,15.75-4.48,7.51-4.81,11.27-11.46,11.27-19.93,0-5.68-2.84-12.62-8.52-20.8-5.11-7.51-7.66-13.77-7.66-18.78,0-7.03,3.9-13.1,11.7-18.2,6.74-4.53,12.9-6.79,18.49-6.79,2.31,0,4.04,.48,5.2,1.44,1.16,.96,1.73,2.46,1.73,4.48,0,2.6-1.3,5.01-3.9,7.22-2.99,2.6-6.26,4.29-9.82,5.06-5.97,1.35-9.25,2.17-9.82,2.46-2.31,1.25-3.47,3.08-3.47,5.49,0,3.56,2.02,5.34,6.07,5.34,2.98,0,6.69-.82,11.12-2.46,8.09-3.08,14.16-7.12,18.2-12.13,4.24-5.3,6.36-10.79,6.36-16.47,0-4.33-1.49-7.56-4.48-9.68ZM369.68,58.44c13.96-21.09,23.59-31.64,28.89-31.64,1.83,0,2.75,1.06,2.75,3.18,0,4.43-4.09,13.43-12.28,27.01-15.79,26.2-33.71,47.87-53.74,65.01,11.36-25.04,22.82-46.23,34.38-63.56Zm-73.2,84.09c-3.08,3.47-4.62,5.59-4.62,6.36,0,1.06,1.2,2.55,3.61,4.48,.09,.1-.58,1.69-2.02,4.77-1.44,3.08-3.32,6.07-5.63,8.96-5.3,6.93-10.26,10.4-14.88,10.4-1.93,0-3.52-.87-4.77-2.6-.87-1.25-1.3-2.7-1.3-4.33,0-6.16,2.36-13.92,7.08-23.26,4.04-8.18,9.92-16.13,17.62-23.83,5.97-5.97,10.5-8.96,13.58-8.96,1.64,0,2.84,.72,3.61,2.17,.48,.77,.72,1.54,.72,2.31,0,5.97-4.33,13.82-13,23.55Zm144.44-4c-3.08,3.47-4.62,5.59-4.62,6.36,0,1.06,1.2,2.55,3.61,4.48,.09,.1-.58,1.69-2.02,4.77-1.44,3.08-3.32,6.07-5.63,8.96-5.3,6.93-10.26,10.4-14.88,10.4-1.93,0-3.52-.87-4.77-2.6-.87-1.25-1.3-2.7-1.3-4.33,0-6.16,2.36-13.92,7.08-23.26,4.04-8.18,9.92-16.13,17.62-23.83,5.97-5.97,10.5-8.96,13.58-8.96,1.64,0,2.84,.72,3.61,2.17,.48,.77,.72,1.54,.72,2.31,0,5.97-4.33,13.82-13,23.55Z"/><g><path class="cls-1" d="M878.14,80.69c3.76,0,7.66-2.36,11.7-7.08,4.24-4.91,6.36-9.39,6.36-13.43,0-4.43-2.17-6.65-6.5-6.65-2.99,0-6.36,1.93-10.11,5.78-5.11,5.2-7.66,10.06-7.66,14.59,0,1.93,.53,3.52,1.59,4.77,1.25,1.35,2.79,2.02,4.62,2.02Z"/><path class="cls-1" d="M999.99,143.72c-.87-1.06-1.83-1.59-2.89-1.59-1.93,0-4.29,1.59-7.08,4.77-15.8,18.49-29.71,27.74-41.75,27.74-5.49,0-9.44-1.78-11.84-5.34-1.06-1.54-1.59-3.37-1.59-5.49v-2.6c19.55-5.87,34.19-16.51,43.92-31.92,4.72-7.42,7.08-13.67,7.08-18.78,0-3.27-1.25-5.92-3.76-7.95-2.02-1.54-4.29-2.31-6.79-2.31-8.28,0-17.84,5.12-28.68,15.32,1.74-3.48,2.62-7.04,2.62-10.69,0-4.33-1.49-7.56-4.48-9.68-2.99-2.12-7.46-3.18-13.43-3.18-11.37,0-22.15,3.56-32.36,10.69-10.5,7.42-15.75,15.94-15.75,25.57,0,7.22,3.18,15.27,9.53,24.12,4.62,6.45,6.93,11.7,6.93,15.75,0,3.28-.87,5.97-2.6,8.09-2.12,2.51-5.06,3.76-8.81,3.76s-7.27-1.44-10.26-4.33c-3.37-3.27-5.06-7.27-5.06-11.99,0-3.95,.57-7.54,1.68-10.77,.59-1.17,1.05-2.26,1.38-3.28,.09-.18,.17-.37,.27-.55,.87-1.54,1.3-2.69,1.3-3.47,0-1.48-.72-2.38-2.13-2.73-.02-.02-.04-.05-.06-.07-.77-.87-1.69-1.3-2.74-1.3-1.93,0-4.09,1.83-6.5,5.49-5.2,8.19-10.54,14.98-16.03,20.37-4.72,4.72-10.74,9.53-18.06,14.45,2.6-6.55,6.74-15.55,12.42-27.01,7.12-13.96,12.47-23.55,16.03-28.75,5.78-8.28,8.67-13.29,8.67-15.02,0-1.16-.58-2.36-1.73-3.61-1.25-1.16-2.6-1.73-4.04-1.73-4.53,0-9.63,5.06-15.31,15.17-2.67,4.78-7.59,14.76-14.74,29.87-1.03,.78-2.14,1.83-3.33,3.18-15.8,18.49-29.71,27.74-41.75,27.74-5.49,0-9.44-1.78-11.84-5.34-1.06-1.54-1.59-3.37-1.59-5.49v-2.6c19.55-5.87,34.19-16.51,43.92-31.92,4.72-7.42,7.08-13.67,7.08-18.78,0-3.27-1.25-5.92-3.76-7.95-2.02-1.54-4.29-2.31-6.79-2.31-9.25,0-20.08,6.36-32.5,19.07-.04,.04-.08,.08-.12,.12-1.02,.19-2.21,.72-3.59,1.65-10.11,6.84-17.24,10.26-21.38,10.26-2.5,0-3.76-1.11-3.76-3.32,0-3.95,4.91-9.82,14.74-17.62,3.66-2.98,5.49-5.34,5.49-7.08,0-.96-.43-2.02-1.3-3.18-1.44-2.12-2.89-3.18-4.33-3.18-.67,0-2.26,.72-4.77,2.17-5.01,2.99-9.73,6.21-14.16,9.68-12.33,9.63-23.21,19.5-32.65,29.61,2.31-5.58,5.63-11.22,9.97-16.9,4.72-5.97,7.27-9.2,7.66-9.68,1.93-2.6,2.89-4.62,2.89-6.07s-.63-2.65-1.88-3.61c-1.06-.77-2.22-1.16-3.47-1.16-3.76,0-8.43,3.61-14.01,10.83-9.05,11.65-17.72,28.07-26,49.26-5.58,14.25-8.38,23.02-8.38,26.29s1.78,5.06,5.34,5.06c3.28,0,6.02-2.21,8.23-6.64,5.87-11.85,11.8-21.81,17.77-29.9,10.3-13.1,19.26-22.34,26.87-27.74-2.02,3.08-3.03,5.83-3.03,8.23,0,3.47,1.11,5.88,3.32,7.22,2.6,1.64,5.44,2.46,8.52,2.46,4.9,0,9.97-1.32,15.23-3.96-4.11,8.25-6.18,16.59-6.18,25.02,0,5.97,1.4,10.69,4.19,14.16,4.14,5.01,9.82,7.51,17.05,7.51s14.64-2.21,22.82-6.65c5.86-3.17,11.48-7.02,16.85-11.53l-4.99,10.55-2.89,6.07c-23.4,9.34-41.36,21.43-53.88,36.26-10.3,12.13-15.46,23.26-15.46,33.37,0,3.95,1.16,7.27,3.47,9.97,3.66,4.24,8.19,6.36,13.58,6.36,4.62,0,9.05-1.25,13.29-3.76,6.36-3.76,11.8-8.57,16.32-14.45,8.19-10.88,16.18-25.19,23.98-42.9,4.43-10.02,7.66-16.66,9.68-19.93,15.21-8.67,27.49-17.91,36.9-27.71,.64,4.49,2.21,8.5,4.73,12.02,4.82,6.65,11.85,9.97,21.09,9.97,5.87,0,11.12-1.49,15.75-4.48,7.51-4.81,11.27-11.46,11.27-19.93,0-5.68-2.84-12.62-8.52-20.8-5.11-7.51-7.66-13.77-7.66-18.78,0-7.03,3.9-13.1,11.7-18.2,6.74-4.53,12.9-6.79,18.49-6.79,2.31,0,4.04,.48,5.2,1.44,1.16,.96,1.73,2.46,1.73,4.48,0,2.6-1.3,5.01-3.9,7.22-2.99,2.6-6.26,4.29-9.82,5.06-5.97,1.35-9.25,2.17-9.82,2.46-2.31,1.25-3.47,3.08-3.47,5.49,0,3.56,2.02,5.34,6.07,5.34,2.98,0,6.69-.82,11.12-2.46,3.78-1.44,7.11-3.1,10.01-4.96-9.9,12.65-14.87,25.52-14.87,38.61,0,5.97,1.4,10.69,4.19,14.16,4.14,5.01,9.82,7.51,17.05,7.51s14.64-2.21,22.82-6.65c8.18-4.43,15.89-10.16,23.11-17.19,9.25-8.96,13.87-15.31,13.87-19.07,0-.67-.29-1.39-.87-2.17Zm-201.31-15.68c4.62-3.76,8.18-5.63,10.69-5.63,1.83,0,2.75,.96,2.75,2.89s-.72,3.9-2.17,6.21c-3.95,6.55-9.29,12.42-16.04,17.62-3.85,2.89-9.15,5.49-15.89,7.8,5.49-12.62,12.37-22.25,20.66-28.89Zm-22.82,131.06c-4.53,4.53-8.81,6.79-12.86,6.79-1.83,0-3.23-.51-4.19-1.52-.96-1.01-1.44-2.53-1.44-4.55,0-8.57,6.07-18.59,18.2-30.05,10.4-10.02,20.13-16.76,29.18-20.22-11.75,25.71-21.38,42.23-28.89,49.55Zm182.82-138.06c4.62-3.76,8.18-5.63,10.69-5.63,1.83,0,2.75,.96,2.75,2.89s-.72,3.9-2.17,6.21c-3.95,6.55-9.29,12.42-16.04,17.62-3.85,2.89-9.15,5.49-15.89,7.8,5.49-12.62,12.37-22.25,20.66-28.89Z"/></g></g></svg>