<?xml version="1.0" encoding="UTF-8"?><svg id="Lag_2" xmlns="http://www.w3.org/2000/svg" viewBox="0 0 780.49 249.82"><defs><style>.cls-1{fill:#819a00;}</style></defs><g id="Lag_1-2"><path class="cls-1" d="M780.49,128.76c0-7.86-4.61-12.75-12.03-12.75-4.91,0-13.48,2.36-33.26,19.16,.52-1.59,.78-3.06,.78-4.43,0-3.47-1.38-6.69-3.99-9.3-3-3-6.03-3.63-8.04-3.63-5.11,0-10.14,3.83-15.85,12.1-4.64,6.84-11.04,17.9-19.01,32.87-3.38,6.29-6.25,11.81-8.71,16.7-2.03,1.27-4.14,3.16-6.4,5.73-18.62,21.79-34.86,32.84-48.27,32.84-5.12,0-8.6-1.46-10.66-4.5-.68-.98-1.03-2.16-1.09-3.59,23.7-7.87,41.86-21.58,53.99-40.8,6.47-10.16,9.61-18.7,9.61-26.11,0-5.57-2.26-10.34-6.54-13.8l-.11-.09c-3.4-2.59-7.27-3.9-11.5-3.9-13.06,0-27.49,8.27-44.11,25.28-9.32,9.49-16.49,19.18-21.49,29.01-.31-.46-.65-.9-1.03-1.34l-.1-.11-.11-.1c-2.02-2.02-4.61-3.09-7.5-3.09-4.54,0-8.47,2.83-11.69,8.41-4.09,6.77-8.82,13.63-14.1,20.43-9.83,13.01-15.38,14.95-17.81,14.95-.93,0-1.53-.16-1.79-.49-.23-.29-.78-1.23-.78-3.7,0-9.82,4.64-25.26,13.81-45.92,6.2-14.09,13.02-27.05,20.3-38.55,3.7-1.21,7.5-2.4,11.29-3.53,20.55-5.98,24.8-6.61,25.61-6.65l.29,.02,.38-.04c7.64-.72,10.02-1.62,11.4-2.45,3.82-2.21,5.92-5.92,5.92-10.45,0-8.32-5.57-13.29-14.91-13.29-4.18,0-9.92,.81-17.4,2.46,.85-1.18,1.75-2.42,2.7-3.71,9.73-13.38,11.05-18.38,11.05-21.5,0-2.85-1.17-5.57-3.5-8.09-2.54-2.73-5.35-4.12-8.35-4.12-3.62,0-7.27,1.98-11.2,6.07-2.2,2.32-5.92,7.08-11.39,14.54-8.87,12.12-15.55,22.07-19.89,29.6-4.33,1.37-7.68,2.26-9.98,2.64-11.68,1.59-13.62,2.22-14.88,2.84-6.55,3.39-7.93,8.21-7.93,11.65,0,2.98,1.09,7.23,6.31,10.54,2.37,1.48,5.05,2.33,8,2.52-1.73,3.45-3.29,6.6-4.69,9.45-.23-.27-.47-.55-.74-.82-2.4-2.4-4.81-2.9-6.41-2.9-2.47,0-5.15,.98-8.21,3.02-14.72,9.95-21.02,11.7-23.37,11.91,.65-1.93,3.55-7.06,16.35-17.23,6.01-4.9,8.69-8.82,8.69-12.7,0-2.27-.86-4.58-2.55-6.87-2.77-4.02-5.96-6.06-9.47-6.06-1.65,0-3.56,.55-8.51,3.41-6.41,3.82-12.52,8-18.17,12.43-3.3,2.58-6.52,5.17-9.67,7.79,1.77-2.91,2.61-5.38,2.61-7.64,0-3.38-1.48-6.3-4.29-8.46l-.12-.09c-2.19-1.59-4.63-2.39-7.26-2.39-6.47,0-13.28,4.91-21.43,15.45-3.17,4.07-6.3,8.64-9.4,13.64,.56-3.59,.85-7.03,.85-10.34,0-20.03-12.39-23.02-19.77-23.02s-15.49,3.03-24.11,9c-7.54,5.23-14.57,11.65-21.06,19.18,2.52-5.04,3.8-10.25,3.8-15.57,0-8.83-4.18-13.66-7.69-16.15-4.64-3.29-11.06-4.88-19.65-4.88-15.15,0-29.69,4.79-43.25,14.25-.7,.5-1.38,1-2.05,1.51,3.23-3.85,6.33-7.69,9.29-11.53,31.01-40.43,46.08-68.89,46.08-87.01,0-4.8-1.61-9.1-4.79-12.78-3.22-3.87-7.59-5.91-12.64-5.91-13.06,0-28.33,11.73-46.67,35.84-21.61,28.25-43.07,64.62-63.79,108.11-1.68,3.56-3.28,7.02-4.79,10.37,2.25-7.72,3.37-14.84,3.37-21.41,0-20.03-12.39-23.02-19.77-23.02s-15.49,3.03-24.11,9c-13.87,9.62-26.06,23.25-36.24,40.5-4.42,7.53-7.95,14.9-10.6,22.08-.69-6.89-3.05-14.18-7.05-21.77-3.9-7.19-8.71-15.08-14.29-23.45-5.66-8.5-10.38-16.19-13.96-22.78-4.05-7.77-6.1-15.35-6.1-22.55,0-9.93,3.93-20.4,11.68-31.15,9.09-12.73,21.82-23.3,37.84-31.42,11.72-5.98,21.45-9,28.9-9,2.05,0,3.73,.51,5.11,1.52,1.63,1.22,2.32,2.56,2.32,4.47,0,7.31-6.85,16.89-19.83,27.7-10.66,8.94-23.12,15.98-36.99,20.91-10.12,3.53-15.25,8.75-15.25,15.53,0,3.17,1.21,6.15,3.53,8.66,3.09,3.26,6.9,4.99,11.02,4.99,5.04,0,11.84-2.18,20.82-6.67,16.79-8.52,31.68-19.66,44.28-33.12,13.8-14.82,20.8-29.06,20.8-42.33,0-9.32-3.71-16.8-11-22.19-5.79-4.38-12.87-6.6-21.03-6.6-11.57,0-23.71,2.75-36.1,8.19-14.55,6.54-28.06,15.17-40.18,25.67-23.24,20.48-35.03,42.96-35.03,66.82,0,10.31,3,20.9,8.91,31.43,4.96,8.95,11.15,19.01,18.42,29.92,4.54,6.75,7.95,12.39,10.1,16.69,1.82,3.74,2.74,8.03,2.74,12.77,0,7.46-3.03,13.49-9.24,18.4-10.94,8.51-23.91,12.82-38.55,12.82-6.85,0-12.49-1.52-16.72-4.46-4.73-3.4-6.93-7.84-6.93-13.96,0-7.44,3.87-12.3,12.1-15.27,10.25-3.48,12.4-9.4,12.4-13.74,0-8.1-5.51-12.93-14.73-12.93-3.3,0-7.14,.88-11.67,2.66-6.44,2.41-12.08,6.09-16.77,10.91-7.89,8.03-11.88,18.06-11.88,29.81,0,10.71,4.2,20.28,12.5,28.44,10.65,10.39,25.4,15.66,43.85,15.66s35.02-4.89,49.64-14.55c9.29-6.26,16.14-13.15,20.56-20.58-.12,1.71-.19,3.42-.19,5.1,0,5.35,1.04,10.06,3.05,13.95,4.09,8.17,10.93,12.49,19.79,12.49,17.05,0,33.71-13.81,50.95-42.24,2.96-4.91,5.62-9.63,8-14.19-.75,2.02-1.45,3.98-2.1,5.86-4.3,12.54-6.4,22.21-6.4,29.55,0,5.04,1.36,9.43,4.06,13.09,3.81,5.08,9.05,7.77,15.17,7.77,10.91,0,21.98-6.82,33.71-20.77,.97,2.07,2.12,4.05,3.47,5.94,6.97,9.62,17.19,14.5,30.35,14.5,8.27,0,15.79-2.15,22.34-6.38,10.85-6.96,16.36-16.74,16.36-29.08,0-8.2-3.77-17.62-11.5-28.76-5.76-8.48-8.68-15.41-8.68-20.61,0-7.03,4.03-13.09,12.38-18.55,7.53-5.06,14.35-7.62,20.28-7.62,2.39,0,3.16,.54,3.28,.64,.18,.15,.36,.75,.36,1.75,0,.63,0,2.56-3.15,5.24-3.11,2.71-6.39,4.4-10.07,5.2-11.77,2.66-12.63,3.09-13.39,3.47l-.15,.08c-4.48,2.43-6.94,6.42-6.94,11.24,0,7.2,4.82,11.67,12.57,11.67,4.36,0,9.47-1.1,15.65-3.39,8.16-3.11,14.89-7.04,20.11-11.73-1.79,2.66-3.54,5.41-5.23,8.26-10.98,18.71-16.54,36.42-16.54,52.62,0,5.35,1.04,10.06,3.05,13.95,4.09,8.17,10.93,12.49,19.79,12.49,14.57,0,28.86-10.1,43.47-30.78-4.34,12.3-5.03,16.78-5.03,19.24,0,6.97,4.47,11.31,11.67,11.31,4.21,0,10.18-1.92,14.75-11.07,7.15-14.41,14.43-26.69,21.66-36.49,7.61-9.67,14.65-17.65,21.03-23.85,.89,5.38,3.77,8.25,6.2,9.74,4.04,2.54,8.51,3.83,13.3,3.83,10.55,0,21.68-4.34,33.06-12.87,1.42-1.05,2.73-2.05,3.96-3.02-6.82,17.22-10.29,32.74-10.29,46.2,0,7.62,1.58,13.74,4.73,18.24,5.06,6.99,11.57,10.54,19.37,10.54,13.31,0,27.12-9.73,42.18-29.73,3.53-4.66,6.4-8.64,8.73-12.07-.33,2.74-.49,5.48-.49,8.23,0,8.58,2.13,15.58,6.37,20.84,6.14,7.42,14.59,11.18,25.12,11.18,9.57,0,19.95-2.99,30.85-8.89,7.07-3.82,13.9-8.46,20.44-13.8,.6,1.12,1.35,2.15,2.25,3.07,2.26,2.42,5.25,3.7,8.65,3.7,6,0,11.34-4.07,15.88-12.09l.07-.12c7.9-14.91,16.19-27.25,24.8-36.92-4.66,11.61-7.01,22.64-7.01,32.96,0,9.23,1.85,17.25,5.46,23.81,5.34,9.92,12.1,12,16.83,12,3.48,0,6.63-1.37,9.11-3.97,3-2.83,3.64-5.74,3.64-7.69,0-2.55-1.03-5.44-3.24-9.06-3.16-5.26-4.69-10.61-4.69-16.35,0-19.1,11.17-41.83,33.22-67.56,5.05-5.92,7.5-11.16,7.5-16.04Zm-138.64,31.33c4.03-3.27,6.65-4.74,8.24-5.39-.29,.85-.79,1.92-1.62,3.25-4.58,7.6-10.9,14.53-18.72,20.56-1.8,1.35-3.92,2.66-6.34,3.93,5.33-9.3,11.5-16.79,18.44-22.35Zm-459.81,13.86c-5.98,6.72-7.03,8.98-7.03,11.25,0,2.68,1.56,5,3.56,7.01-.29,.64-.65,1.43-1.11,2.4-1.62,3.47-3.78,6.89-6.4,10.17l-.07,.09c-5.5,7.2-10.55,11.01-14.59,11.01-.53,0-1.11-.09-1.84-1.09-.5-.72-.73-1.53-.73-2.56,0-6.86,2.79-15.86,8.31-26.79,4.78-9.67,11.86-19.23,21.04-28.41,9.24-9.24,12.78-9.71,13.4-9.71,.02,0,.04,0,.06,0,0,.02,.11,.2,.11,.2l.09,.14c.1,.16,.14,.26,.14,.26t0,0c0,4.23-2.61,12.18-14.95,26.03Zm111.64-98.04c18.21-27.51,26.73-34.7,30.09-36.57-.7,3.47-3.61,11.53-14.4,29.43-14.15,23.46-29.83,44.14-46.81,61.75,10.32-20.74,20.74-39.04,31.12-54.61Zm2.07,140.17c-1.68,1.99-3.96,2.91-7.17,2.91-3.49,0-6.54-1.31-9.31-3.99-3.22-3.13-4.79-6.85-4.79-11.37,0-6.09,1.19-11.4,3.53-15.8,1.55-2.76,2.24-4.83,2.24-6.73,0-3.97-2.49-8.6-9.5-8.6-4.22,0-8.16,1.99-11.73,5.89-1.68,1.38-3.27,3.27-4.74,5.65-6.22,10.09-10.94,17.13-13.99,20.85-6.81,8.13-10.6,9.98-12.22,10.37,.11-1.25,.6-4.07,2.44-9.99,1.69-5.41,4.24-12.56,7.57-21.28,8.06-7.27,14.57-13.2,19.35-17.63,8.51-7.91,16.53-15.88,24.02-23.86-2.77,5.34-4.17,11.01-4.17,16.98,0,10.04,4.32,21.14,12.83,33,6.38,8.9,7.71,14.01,7.71,16.73,0,2.92-.69,5.19-2.06,6.86Zm87-30.87c0,2.68,1.56,5,3.56,7.01-.29,.64-.65,1.43-1.11,2.4-1.62,3.47-3.78,6.89-6.4,10.17l-.07,.09c-5.5,7.2-10.54,11.01-14.58,11.01-.53,0-1.11-.09-1.84-1.09-.5-.72-.73-1.53-.73-2.56,0-6.86,2.79-15.86,8.31-26.79,4.78-9.67,11.86-19.23,21.04-28.41,9.24-9.24,12.78-9.71,13.4-9.71,.02,0,.04,0,.06,0,.01,.02,.11,.2,.11,.2l.09,.14c.1,.16,.14,.26,.14,.26h0c0,4.23-2.61,12.18-14.95,26.03-5.98,6.72-7.03,8.98-7.03,11.25Z"/></g></svg>