<?xml version="1.0" encoding="UTF-8"?><svg id="Lag_2" xmlns="http://www.w3.org/2000/svg" viewBox="0 0 795.24 133"><defs><style>.cls-1{fill:none;stroke:#d9e021;stroke-linecap:round;stroke-linejoin:round;stroke-width:14px;}</style></defs><g id="Lag_1-2"><path class="cls-1" d="M79,7H8l1,53,65,3H9l-2,61,69-2L110,49l1,76s-2-47,8-64,52-20,53-10,2,71,2,71l103-77s-51,28-1,39-14,42-14,42c0,0,66-104,110-75s-5,71-5,71c0,0-48,7-51-31s31-49,48-48,60-35,60-35l-2,116s32-83,63-78-42-15-27,28c0,0,17,2,33,27s-27,21-27,21c0,0,79-104,113-67s9,68-12,68-52-10-45-32-2-45,48-45,54,3,54,3l3,72,12-64s8-8,25-4,35-1,33-35-7,98,1,104,28,1,28,1l-44-75,43,3,51-3s-45,18-2,38-13,38-13,38"/></g></svg>